<svg width="207" height="30" viewBox="0 0 207 30" fill="none" xmlns="http://www.w3.org/2000/svg">
<path d="M26.9328 13.5527C26.9328 13.5527 27.3682 15.7324 27.4656 16.1895H25.5521C25.7411 15.668 26.4688 13.6406 26.4688 13.6406C26.4573 13.6582 26.6578 13.1074 26.7724 12.7676L26.9328 13.5527ZM33 4.6875V25.3125C33 26.8652 31.7682 28.125 30.25 28.125H2.75C1.23177 28.125 0 26.8652 0 25.3125V4.6875C0 3.13477 1.23177 1.875 2.75 1.875H30.25C31.7682 1.875 33 3.13477 33 4.6875ZM8.73698 19.4062L12.3578 10.3125H9.92292L7.67135 16.5234L7.425 15.2637L6.62292 11.0801C6.49115 10.5 6.08438 10.3359 5.58021 10.3125H1.87344L1.83333 10.4941C2.73854 10.7285 3.54635 11.0684 4.25104 11.4961L6.30208 19.4062H8.73698ZM14.1453 19.418L15.5891 10.3125H13.2859L11.8479 19.418H14.1453ZM22.1604 16.4414C22.1719 15.4043 21.5531 14.6133 20.2297 13.9629C19.4219 13.5469 18.9292 13.2656 18.9292 12.8379C18.9406 12.4512 19.3474 12.0527 20.2526 12.0527C21.0031 12.0352 21.5531 12.2168 21.9656 12.3984L22.1719 12.498L22.487 10.5293C22.0344 10.3477 21.3125 10.1426 20.4245 10.1426C18.15 10.1426 16.5516 11.3848 16.5401 13.1543C16.5229 14.4609 17.6859 15.1875 18.5568 15.627C19.4448 16.0723 19.7484 16.3652 19.7484 16.7578C19.737 17.3672 19.0266 17.6484 18.3677 17.6484C17.451 17.6484 16.9583 17.502 16.2078 17.1621L15.9042 17.0156L15.5833 19.0605C16.1219 19.3125 17.1187 19.5352 18.15 19.5469C20.5677 19.5527 22.1432 18.3281 22.1604 16.4414ZM30.25 19.418L28.3938 10.3125H26.612C26.062 10.3125 25.6438 10.4766 25.4089 11.0684L21.9885 19.418H24.4062C24.4062 19.418 24.8016 18.293 24.8875 18.0527H27.8438C27.9125 18.375 28.1187 19.418 28.1187 19.418H30.25Z" fill="white"/>
<path d="M68.6734 15.1289C68.6734 15.8438 68.1177 16.3887 67.413 16.3887C66.8859 16.3887 66.4964 16.084 66.4964 15.5098C66.4964 14.7949 67.0406 14.2207 67.7396 14.2207C68.2724 14.2207 68.6734 14.5547 68.6734 15.1289ZM62.612 12.2871H62.3427C62.2568 12.2871 62.1708 12.3457 62.1594 12.4453L61.913 14.0098L62.3828 13.9922C63.013 13.9922 63.5 13.9043 63.6146 13.1602C63.7464 12.375 63.2594 12.2871 62.612 12.2871ZM78.8828 12.2871H78.625C78.5219 12.2871 78.4531 12.3457 78.4417 12.4453L78.201 14.0098L78.6594 13.9922C79.4042 13.9922 79.9198 13.8164 79.9198 12.9375C79.9141 12.3164 79.3698 12.2871 78.8828 12.2871ZM91 4.6875V25.3125C91 26.8652 89.7682 28.125 88.25 28.125H60.75C59.2318 28.125 58 26.8652 58 25.3125V4.6875C58 3.13477 59.2318 1.875 60.75 1.875H88.25C89.7682 1.875 91 3.13477 91 4.6875ZM65.3505 12.6211C65.3505 11.3906 64.4224 10.9805 63.3625 10.9805H61.0708C60.9276 10.9805 60.7844 11.0977 60.7729 11.2559L59.8333 17.2383C59.8161 17.3555 59.9021 17.4727 60.0167 17.4727H61.1052C61.2599 17.4727 61.4031 17.3027 61.4203 17.1387L61.6781 15.5801C61.7354 15.1582 62.4344 15.3047 62.7094 15.3047C64.3479 15.3047 65.3505 14.3086 65.3505 12.6211ZM70.1745 13.1367H69.0859C68.8682 13.1367 68.8568 13.459 68.8453 13.6172C68.513 13.1191 68.0318 13.0312 67.4875 13.0312C66.0839 13.0312 65.0125 14.291 65.0125 15.6797C65.0125 16.8223 65.7115 17.5664 66.8286 17.5664C67.3443 17.5664 67.9859 17.2793 68.3469 16.8691C68.3182 16.957 68.2896 17.1445 68.2896 17.2324C68.2896 17.3672 68.3469 17.4668 68.4729 17.4668H69.4583C69.613 17.4668 69.7448 17.2969 69.7734 17.1328L70.3578 13.3652C70.375 13.2539 70.2891 13.1367 70.1745 13.1367ZM72.4948 18.873L76.1443 13.4473C76.1729 13.418 76.1729 13.3887 76.1729 13.3477C76.1729 13.248 76.087 13.1426 75.9896 13.1426H74.8896C74.7922 13.1426 74.6891 13.2012 74.6318 13.2891L73.1135 15.5742L72.4833 13.377C72.4375 13.248 72.3115 13.1426 72.1682 13.1426H71.0969C70.9995 13.1426 70.9135 13.248 70.9135 13.3477C70.9135 13.418 72.0307 16.6758 72.1281 16.9863C71.9734 17.209 70.9536 18.6621 70.9536 18.8379C70.9536 18.9434 71.0396 19.0254 71.137 19.0254H72.237C72.3401 19.0195 72.4375 18.9609 72.4948 18.873ZM81.6214 12.6211C81.6214 11.3906 80.6932 10.9805 79.6333 10.9805H77.3589C77.2042 10.9805 77.0609 11.0977 77.0438 11.2559L76.1156 17.2324C76.1042 17.3496 76.1901 17.4668 76.299 17.4668H77.4734C77.588 17.4668 77.674 17.3789 77.7026 17.2793L77.9604 15.5801C78.0177 15.1582 78.7167 15.3047 78.9917 15.3047C80.6187 15.3047 81.6214 14.3086 81.6214 12.6211ZM86.4453 13.1367H85.3568C85.1391 13.1367 85.1276 13.459 85.1104 13.6172C84.7953 13.1191 84.3083 13.0312 83.7526 13.0312C82.349 13.0312 81.2776 14.291 81.2776 15.6797C81.2776 16.8223 81.9766 17.5664 83.0938 17.5664C83.6266 17.5664 84.2682 17.2793 84.612 16.8691C84.5948 16.957 84.5547 17.1445 84.5547 17.2324C84.5547 17.3672 84.612 17.4668 84.738 17.4668H85.7292C85.8839 17.4668 86.0156 17.2969 86.0443 17.1328L86.6286 13.3652C86.6458 13.2539 86.5599 13.1367 86.4453 13.1367ZM89.1667 11.1855C89.1667 11.0684 89.0807 10.9805 88.9833 10.9805H87.9234C87.8375 10.9805 87.7516 11.0508 87.7401 11.1387L86.812 17.2324L86.7948 17.2617C86.7948 17.3672 86.8807 17.4668 86.9953 17.4668H87.9406C88.0839 17.4668 88.2271 17.2969 88.2385 17.1328L89.1667 11.2031V11.1855ZM84.0104 14.2207C83.3115 14.2207 82.7672 14.7891 82.7672 15.5098C82.7672 16.0781 83.1682 16.3887 83.6953 16.3887C84.3828 16.3887 84.9385 15.8496 84.9385 15.1289C84.9443 14.5547 84.5432 14.2207 84.0104 14.2207Z" fill="white"/>
<path d="M145.815 11.4902C145.815 11.0273 145.499 10.7812 144.921 10.7812H144.64V12.2402H144.909C145.499 12.2402 145.815 11.9824 145.815 11.4902ZM146.25 1.875H118.75C117.232 1.875 116 3.13477 116 4.6875V25.3125C116 26.8652 117.232 28.125 118.75 28.125H146.25C147.768 28.125 149 26.8652 149 25.3125V4.6875C149 3.13477 147.768 1.875 146.25 1.875ZM143.723 10.0137C145.018 10.0137 146.754 9.77344 146.754 11.4434C146.754 12.1816 146.376 12.6562 145.683 12.8027L147.161 14.8184H146.038L144.766 12.8965H144.64V14.8184H143.723V10.0137ZM140.521 10.0195H143.116V10.8398H141.438V11.9062H143.059V12.7148H141.438V14.0156H143.116V14.8242H140.521V10.0195ZM136.585 10.0195L137.84 13.2539L139.111 10.0195H140.114L138.08 14.9531H137.587L135.582 10.0195H136.585ZM133.382 9.84375C134.797 9.84375 135.938 11.0156 135.938 12.457C135.938 13.9043 134.792 15.0703 133.382 15.0703C131.967 15.0703 130.827 13.8984 130.827 12.457C130.827 11.0098 131.973 9.84375 133.382 9.84375ZM130.558 10.2012V11.3145C129.406 10.1367 127.877 11.0391 127.877 12.4277C127.877 13.8926 129.452 14.6836 130.558 13.5527V14.666C128.856 15.5039 126.931 14.332 126.931 12.4277C126.931 10.5996 128.828 9.32227 130.558 10.2012ZM124.989 14.0859C125.642 14.0859 126.272 13.1895 124.8 12.6562C123.941 12.334 123.643 11.9883 123.643 11.3262C123.643 9.9668 125.396 9.48633 126.49 10.4883L126.009 11.1211C125.413 10.4414 124.582 10.7578 124.582 11.2676C124.582 11.5254 124.737 11.6719 125.287 11.8711C126.33 12.2578 126.639 12.6035 126.639 13.3711C126.639 15.0996 124.416 15.5625 123.396 14.0332L123.986 13.4531C124.198 13.8691 124.554 14.0859 124.989 14.0859ZM119.174 14.8242H117.833V10.0195H119.174C120.669 10.0195 121.701 11.0156 121.701 12.4277C121.701 13.5117 120.944 14.8242 119.174 14.8242ZM123.041 14.8242H122.124V10.0195H123.041V14.8242ZM147.167 25.3711C147.167 25.8516 146.777 26.25 146.307 26.25H123.333C134.196 24.1641 145.259 18.0938 147.167 16.875V25.3711ZM120.245 11.2266C119.947 10.9395 119.581 10.8398 118.991 10.8398H118.75V14.0156H118.991C119.581 14.0156 119.965 13.8984 120.245 13.6406C120.572 13.3359 120.755 12.8906 120.755 12.4277C120.755 11.9648 120.572 11.5195 120.245 11.2266Z" fill="white"/>
<path d="M201.666 24.041C201.666 24.4395 201.403 24.7266 201.024 24.7266C200.635 24.7266 200.383 24.4219 200.383 24.041C200.383 23.6602 200.635 23.3555 201.024 23.3555C201.403 23.3555 201.666 23.6602 201.666 24.041ZM183.86 23.3555C183.453 23.3555 183.218 23.6602 183.218 24.041C183.218 24.4219 183.453 24.7266 183.86 24.7266C184.232 24.7266 184.484 24.4395 184.484 24.041C184.479 23.6602 184.232 23.3555 183.86 23.3555ZM190.592 23.3379C190.282 23.3379 190.093 23.543 190.047 23.8477H191.142C191.09 23.5137 190.89 23.3379 190.592 23.3379ZM196.768 23.3555C196.378 23.3555 196.143 23.6602 196.143 24.041C196.143 24.4219 196.378 24.7266 196.768 24.7266C197.157 24.7266 197.409 24.4395 197.409 24.041C197.409 23.6602 197.157 23.3555 196.768 23.3555ZM202.835 24.8848C202.835 24.9023 202.852 24.9141 202.852 24.9492C202.852 24.9668 202.835 24.9785 202.835 25.0137C202.818 25.0312 202.818 25.043 202.806 25.0605C202.789 25.0781 202.778 25.0898 202.743 25.0898C202.726 25.1074 202.715 25.1074 202.68 25.1074C202.663 25.1074 202.652 25.1074 202.617 25.0898C202.6 25.0898 202.589 25.0723 202.571 25.0605C202.554 25.043 202.543 25.0312 202.543 25.0137C202.526 24.9844 202.526 24.9668 202.526 24.9492C202.526 24.9199 202.526 24.9023 202.543 24.8848C202.543 24.8555 202.56 24.8379 202.571 24.8203C202.589 24.8027 202.6 24.8027 202.617 24.791C202.646 24.7734 202.663 24.7734 202.68 24.7734C202.709 24.7734 202.726 24.7734 202.743 24.791C202.772 24.8086 202.789 24.8086 202.806 24.8203C202.823 24.832 202.818 24.8555 202.835 24.8848ZM202.709 24.9668C202.738 24.9668 202.738 24.9492 202.755 24.9492C202.772 24.9316 202.772 24.9199 202.772 24.9023C202.772 24.8848 202.772 24.873 202.755 24.8555C202.738 24.8555 202.726 24.8379 202.692 24.8379H202.6V25.043H202.646V24.9609H202.663L202.726 25.043H202.772L202.709 24.9668ZM207 4.74609V25.3711C207 26.9238 205.768 28.1836 204.25 28.1836H176.75C175.232 28.1836 174 26.9238 174 25.3711V4.74609C174 3.19336 175.232 1.93359 176.75 1.93359H204.25C205.768 1.93359 207 3.19336 207 4.74609ZM177.667 12.9258C177.667 17.4082 181.224 21.041 185.602 21.041C187.16 21.041 188.69 20.5605 189.984 19.6875C185.808 16.2129 185.836 9.65625 189.984 6.18164C188.69 5.30273 187.16 4.82812 185.602 4.82812C181.224 4.82227 177.667 8.46094 177.667 12.9258ZM190.5 19.3008C194.539 16.0781 194.522 9.79688 190.5 6.55664C186.478 9.79688 186.461 16.084 190.5 19.3008ZM182.347 23.7715C182.347 23.2617 182.021 22.9277 181.505 22.9102C181.242 22.9102 180.961 22.9922 180.772 23.291C180.634 23.0508 180.399 22.9102 180.073 22.9102C179.855 22.9102 179.638 22.9922 179.466 23.2266V22.9688H178.996V25.1191H179.466C179.466 24.0117 179.322 23.3496 179.981 23.3496C180.566 23.3496 180.451 23.9473 180.451 25.1191H180.904C180.904 24.0469 180.76 23.3496 181.419 23.3496C182.004 23.3496 181.889 23.9355 181.889 25.1191H182.359V23.7715H182.347ZM184.92 22.9688H184.467V23.2266C184.312 23.0332 184.095 22.9102 183.797 22.9102C183.207 22.9102 182.754 23.3906 182.754 24.041C182.754 24.6973 183.207 25.1719 183.797 25.1719C184.095 25.1719 184.312 25.0605 184.467 24.8555V25.125H184.92V22.9688ZM187.24 24.4688C187.24 23.5898 185.928 23.9883 185.928 23.5781C185.928 23.2441 186.61 23.2969 186.988 23.5137L187.177 23.1328C186.639 22.7754 185.447 22.7812 185.447 23.6133C185.447 24.4512 186.759 24.0996 186.759 24.4922C186.759 24.8613 185.985 24.832 185.573 24.5391L185.372 24.9082C186.014 25.3535 187.24 25.2598 187.24 24.4688ZM189.268 25.0137L189.142 24.6152C188.924 24.7383 188.443 24.873 188.443 24.375V23.4023H189.194V22.9688H188.443V22.3125H187.973V22.9688H187.538V23.3965H187.973V24.375C187.973 25.4062 188.965 25.2188 189.268 25.0137ZM190.03 24.2285H191.606C191.606 23.2793 191.182 22.9043 190.609 22.9043C190.002 22.9043 189.566 23.3672 189.566 24.0352C189.566 25.2363 190.861 25.4355 191.503 24.8672L191.285 24.5156C190.838 24.8906 190.162 24.8555 190.03 24.2285ZM193.416 22.9688C193.153 22.8516 192.752 22.8633 192.545 23.2266V22.9688H192.076V25.1191H192.545V23.9062C192.545 23.2266 193.09 23.3145 193.279 23.4141L193.416 22.9688ZM194.023 24.041C194.023 23.373 194.688 23.1562 195.209 23.5488L195.427 23.168C194.763 22.6348 193.554 22.9277 193.554 24.0469C193.554 25.207 194.837 25.4414 195.427 24.9258L195.209 24.5449C194.682 24.9258 194.023 24.6973 194.023 24.041ZM197.845 22.9688H197.375V23.2266C196.899 22.582 195.662 22.9453 195.662 24.041C195.662 25.166 196.945 25.4883 197.375 24.8555V25.125H197.845V22.9688ZM199.776 22.9688C199.638 22.8984 199.145 22.7988 198.905 23.2266V22.9688H198.452V25.1191H198.905V23.9062C198.905 23.2617 199.42 23.3027 199.638 23.4141L199.776 22.9688ZM202.084 22.0957H201.632V23.2266C201.162 22.5879 199.919 22.9277 199.919 24.041C199.919 25.1777 201.208 25.4824 201.632 24.8555V25.125H202.084V22.0957ZM202.52 17.6953V17.9648H202.566V17.6953H202.674V17.6484H202.411V17.6953H202.52ZM202.898 24.9492C202.898 24.9199 202.898 24.8848 202.881 24.8555C202.864 24.8379 202.852 24.8086 202.835 24.791C202.818 24.7734 202.789 24.7617 202.772 24.7441C202.743 24.7441 202.709 24.7266 202.68 24.7266C202.663 24.7266 202.634 24.7441 202.6 24.7441C202.571 24.7617 202.554 24.7734 202.537 24.791C202.508 24.8086 202.491 24.8379 202.491 24.8555C202.474 24.8848 202.474 24.9199 202.474 24.9492C202.474 24.9668 202.474 24.9961 202.491 25.0312C202.491 25.0488 202.508 25.0781 202.537 25.0957C202.554 25.1133 202.566 25.125 202.6 25.1426C202.629 25.1602 202.663 25.1602 202.68 25.1602C202.709 25.1602 202.743 25.1602 202.772 25.1426C202.789 25.125 202.818 25.1133 202.835 25.0957C202.852 25.0781 202.864 25.0488 202.881 25.0312C202.898 24.9961 202.898 24.9668 202.898 24.9492ZM203.081 17.6426H203.001L202.909 17.8477L202.818 17.6426H202.738V17.959H202.783V17.7188L202.875 17.9238H202.938L203.018 17.7188V17.959H203.081V17.6426ZM203.333 12.9258C203.333 8.46094 199.776 4.82227 195.398 4.82227C193.84 4.82227 192.31 5.30273 191.016 6.17578C195.146 9.65039 195.209 16.2246 191.016 19.6816C192.31 20.5605 193.852 21.0352 195.398 21.0352C199.776 21.041 203.333 17.4082 203.333 12.9258Z" fill="white"/>
</svg>
